<mxfile host="app.diagrams.net" modified="2023-05-17T20:23:43.070Z" agent="Mozilla/5.0 (Windows NT 10.0; Win64; x64) AppleWebKit/537.36 (KHTML, like Gecko) Chrome/113.0.0.0 Safari/537.36" etag="D0N__kjPGxrmqh1UxGjY" version="21.3.2" type="device">
  <diagram name="PÃ¡gina-1" id="Wr9Og0r3tRwQWU35xFet">
    <mxGraphModel dx="714" dy="805" grid="1" gridSize="10" guides="1" tooltips="1" connect="1" arrows="1" fold="1" page="1" pageScale="1" pageWidth="827" pageHeight="1169" math="0" shadow="0">
      <root>
        <mxCell id="0" />
        <mxCell id="1" parent="0" />
        <mxCell id="2ykv83_YmhZ20coBo-Xl-1" value="" style="endArrow=none;dashed=1;html=1;rounded=0;" edge="1" parent="1">
          <mxGeometry width="50" height="50" relative="1" as="geometry">
            <mxPoint x="180" y="250" as="sourcePoint" />
            <mxPoint x="680" y="250" as="targetPoint" />
          </mxGeometry>
        </mxCell>
        <mxCell id="2ykv83_YmhZ20coBo-Xl-2" value="&lt;table style=&quot;border-collapse:&lt;br/&gt; collapse;width:60pt&quot; width=&quot;80&quot; cellspacing=&quot;0&quot; cellpadding=&quot;0&quot; border=&quot;0&quot;&gt;&lt;tbody&gt;&lt;tr style=&quot;height:18.75pt&quot; height=&quot;25&quot;&gt;&lt;br/&gt;  &lt;td style=&quot;height:18.75pt;width:60pt&quot; width=&quot;80&quot; class=&quot;xl65&quot; height=&quot;25&quot;&gt;14:48:53.823&amp;nbsp; &amp;nbsp;&lt;/td&gt;&lt;/tr&gt;&lt;/tbody&gt;&lt;/table&gt;" style="text;html=1;strokeColor=none;fillColor=none;align=center;verticalAlign=middle;whiteSpace=wrap;rounded=0;" vertex="1" parent="1">
          <mxGeometry x="50" y="230" width="130" height="40" as="geometry" />
        </mxCell>
        <mxCell id="2ykv83_YmhZ20coBo-Xl-3" value="" style="endArrow=none;dashed=1;html=1;rounded=0;" edge="1" parent="1">
          <mxGeometry width="50" height="50" relative="1" as="geometry">
            <mxPoint x="180" y="290" as="sourcePoint" />
            <mxPoint x="680" y="290" as="targetPoint" />
          </mxGeometry>
        </mxCell>
        <mxCell id="2ykv83_YmhZ20coBo-Xl-4" value="&lt;table style=&quot;border-collapse:&lt;br/&gt; collapse;width:60pt&quot; width=&quot;80&quot; cellspacing=&quot;0&quot; cellpadding=&quot;0&quot; border=&quot;0&quot;&gt;&lt;tbody&gt;&lt;tr style=&quot;height:18.75pt&quot; height=&quot;25&quot;&gt;&lt;br/&gt;  &lt;td style=&quot;height:18.75pt;width:60pt&quot; width=&quot;80&quot; class=&quot;xl65&quot; height=&quot;25&quot;&gt;14:48:53.824&amp;nbsp; &amp;nbsp;&lt;/td&gt;&lt;/tr&gt;&lt;/tbody&gt;&lt;/table&gt;" style="text;html=1;strokeColor=none;fillColor=none;align=center;verticalAlign=middle;whiteSpace=wrap;rounded=0;" vertex="1" parent="1">
          <mxGeometry x="50" y="270" width="130" height="40" as="geometry" />
        </mxCell>
        <mxCell id="2ykv83_YmhZ20coBo-Xl-5" value="" style="endArrow=none;dashed=1;html=1;rounded=0;" edge="1" parent="1" source="2ykv83_YmhZ20coBo-Xl-68">
          <mxGeometry width="50" height="50" relative="1" as="geometry">
            <mxPoint x="180" y="330" as="sourcePoint" />
            <mxPoint x="680" y="330" as="targetPoint" />
          </mxGeometry>
        </mxCell>
        <mxCell id="2ykv83_YmhZ20coBo-Xl-6" value="&lt;table style=&quot;border-collapse:&lt;br/&gt; collapse;width:60pt&quot; width=&quot;80&quot; cellspacing=&quot;0&quot; cellpadding=&quot;0&quot; border=&quot;0&quot;&gt;&lt;tbody&gt;&lt;tr style=&quot;height:18.75pt&quot; height=&quot;25&quot;&gt;&lt;br/&gt;  &lt;td style=&quot;height:18.75pt;width:60pt&quot; width=&quot;80&quot; class=&quot;xl65&quot; height=&quot;25&quot;&gt;14:48:53.824&amp;nbsp; &amp;nbsp;&lt;/td&gt;&lt;/tr&gt;&lt;/tbody&gt;&lt;/table&gt;" style="text;html=1;strokeColor=none;fillColor=none;align=center;verticalAlign=middle;whiteSpace=wrap;rounded=0;" vertex="1" parent="1">
          <mxGeometry x="50" y="310" width="130" height="40" as="geometry" />
        </mxCell>
        <mxCell id="2ykv83_YmhZ20coBo-Xl-7" value="" style="endArrow=none;dashed=1;html=1;rounded=0;" edge="1" parent="1">
          <mxGeometry width="50" height="50" relative="1" as="geometry">
            <mxPoint x="180" y="370" as="sourcePoint" />
            <mxPoint x="680" y="370" as="targetPoint" />
          </mxGeometry>
        </mxCell>
        <mxCell id="2ykv83_YmhZ20coBo-Xl-8" value="&lt;table style=&quot;border-collapse:&lt;br/&gt; collapse;width:60pt&quot; width=&quot;80&quot; cellspacing=&quot;0&quot; cellpadding=&quot;0&quot; border=&quot;0&quot;&gt;&lt;tbody&gt;&lt;tr style=&quot;height:18.75pt&quot; height=&quot;25&quot;&gt;&lt;br/&gt;  &lt;td style=&quot;height:18.75pt;width:60pt&quot; width=&quot;80&quot; class=&quot;xl65&quot; height=&quot;25&quot;&gt;14:48:56.934&amp;nbsp; &amp;nbsp;&lt;/td&gt;&lt;/tr&gt;&lt;/tbody&gt;&lt;/table&gt;" style="text;html=1;strokeColor=none;fillColor=none;align=center;verticalAlign=middle;whiteSpace=wrap;rounded=0;" vertex="1" parent="1">
          <mxGeometry x="50" y="350" width="130" height="40" as="geometry" />
        </mxCell>
        <mxCell id="2ykv83_YmhZ20coBo-Xl-9" value="" style="endArrow=none;dashed=1;html=1;rounded=0;" edge="1" parent="1" source="2ykv83_YmhZ20coBo-Xl-77">
          <mxGeometry width="50" height="50" relative="1" as="geometry">
            <mxPoint x="180" y="410" as="sourcePoint" />
            <mxPoint x="680" y="410" as="targetPoint" />
          </mxGeometry>
        </mxCell>
        <mxCell id="2ykv83_YmhZ20coBo-Xl-10" value="&lt;table style=&quot;border-collapse:&lt;br/&gt; collapse;width:60pt&quot; width=&quot;80&quot; cellspacing=&quot;0&quot; cellpadding=&quot;0&quot; border=&quot;0&quot;&gt;&lt;tbody&gt;&lt;tr style=&quot;height:18.75pt&quot; height=&quot;25&quot;&gt;&lt;br/&gt;  &lt;td style=&quot;height:18.75pt;width:60pt&quot; width=&quot;80&quot; class=&quot;xl65&quot; height=&quot;25&quot;&gt;14:48:57.131&amp;nbsp; &amp;nbsp;&lt;/td&gt;&lt;/tr&gt;&lt;/tbody&gt;&lt;/table&gt;" style="text;html=1;strokeColor=none;fillColor=none;align=center;verticalAlign=middle;whiteSpace=wrap;rounded=0;" vertex="1" parent="1">
          <mxGeometry x="50" y="390" width="130" height="40" as="geometry" />
        </mxCell>
        <mxCell id="2ykv83_YmhZ20coBo-Xl-11" value="" style="endArrow=none;dashed=1;html=1;rounded=0;" edge="1" parent="1" source="2ykv83_YmhZ20coBo-Xl-84">
          <mxGeometry width="50" height="50" relative="1" as="geometry">
            <mxPoint x="180" y="450" as="sourcePoint" />
            <mxPoint x="680" y="450" as="targetPoint" />
          </mxGeometry>
        </mxCell>
        <mxCell id="2ykv83_YmhZ20coBo-Xl-12" value="&lt;table style=&quot;border-collapse:&lt;br/&gt; collapse;width:60pt&quot; width=&quot;80&quot; cellspacing=&quot;0&quot; cellpadding=&quot;0&quot; border=&quot;0&quot;&gt;&lt;tbody&gt;&lt;tr style=&quot;height:18.75pt&quot; height=&quot;25&quot;&gt;&lt;br/&gt;  &lt;td style=&quot;height:18.75pt;width:60pt&quot; width=&quot;80&quot; class=&quot;xl65&quot; height=&quot;25&quot;&gt;14:48:58.673&amp;nbsp; &amp;nbsp;&lt;/td&gt;&lt;/tr&gt;&lt;/tbody&gt;&lt;/table&gt;" style="text;html=1;strokeColor=none;fillColor=none;align=center;verticalAlign=middle;whiteSpace=wrap;rounded=0;" vertex="1" parent="1">
          <mxGeometry x="50" y="430" width="130" height="40" as="geometry" />
        </mxCell>
        <mxCell id="2ykv83_YmhZ20coBo-Xl-13" value="" style="endArrow=none;dashed=1;html=1;rounded=0;" edge="1" parent="1" source="2ykv83_YmhZ20coBo-Xl-70">
          <mxGeometry width="50" height="50" relative="1" as="geometry">
            <mxPoint x="180" y="490" as="sourcePoint" />
            <mxPoint x="680" y="490" as="targetPoint" />
          </mxGeometry>
        </mxCell>
        <mxCell id="2ykv83_YmhZ20coBo-Xl-14" value="&lt;table style=&quot;border-collapse:&lt;br/&gt; collapse;width:60pt&quot; width=&quot;80&quot; cellspacing=&quot;0&quot; cellpadding=&quot;0&quot; border=&quot;0&quot;&gt;&lt;tbody&gt;&lt;tr style=&quot;height:18.75pt&quot; height=&quot;25&quot;&gt;&lt;br/&gt;  &lt;td style=&quot;height:18.75pt;width:60pt&quot; width=&quot;80&quot; class=&quot;xl65&quot; height=&quot;25&quot;&gt;14:48:59.680&amp;nbsp; &amp;nbsp;&lt;/td&gt;&lt;/tr&gt;&lt;/tbody&gt;&lt;/table&gt;" style="text;html=1;strokeColor=none;fillColor=none;align=center;verticalAlign=middle;whiteSpace=wrap;rounded=0;" vertex="1" parent="1">
          <mxGeometry x="50" y="470" width="130" height="40" as="geometry" />
        </mxCell>
        <mxCell id="2ykv83_YmhZ20coBo-Xl-15" value="" style="endArrow=none;dashed=1;html=1;rounded=0;" edge="1" parent="1">
          <mxGeometry width="50" height="50" relative="1" as="geometry">
            <mxPoint x="180" y="530" as="sourcePoint" />
            <mxPoint x="680" y="530" as="targetPoint" />
          </mxGeometry>
        </mxCell>
        <mxCell id="2ykv83_YmhZ20coBo-Xl-16" value="&lt;table style=&quot;border-collapse:&lt;br/&gt; collapse;width:60pt&quot; width=&quot;80&quot; cellspacing=&quot;0&quot; cellpadding=&quot;0&quot; border=&quot;0&quot;&gt;&lt;tbody&gt;&lt;tr style=&quot;height:18.75pt&quot; height=&quot;25&quot;&gt;&lt;br/&gt;  &lt;td style=&quot;height:18.75pt;width:60pt&quot; width=&quot;80&quot; class=&quot;xl65&quot; height=&quot;25&quot;&gt;14:49:00.773&amp;nbsp; &amp;nbsp;&lt;/td&gt;&lt;/tr&gt;&lt;/tbody&gt;&lt;/table&gt;" style="text;html=1;strokeColor=none;fillColor=none;align=center;verticalAlign=middle;whiteSpace=wrap;rounded=0;" vertex="1" parent="1">
          <mxGeometry x="50" y="510" width="130" height="40" as="geometry" />
        </mxCell>
        <mxCell id="2ykv83_YmhZ20coBo-Xl-17" value="" style="endArrow=none;dashed=1;html=1;rounded=0;" edge="1" parent="1">
          <mxGeometry width="50" height="50" relative="1" as="geometry">
            <mxPoint x="180" y="570" as="sourcePoint" />
            <mxPoint x="680" y="570" as="targetPoint" />
          </mxGeometry>
        </mxCell>
        <mxCell id="2ykv83_YmhZ20coBo-Xl-18" value="&lt;table style=&quot;border-collapse:&lt;br/&gt; collapse;width:60pt&quot; width=&quot;80&quot; cellspacing=&quot;0&quot; cellpadding=&quot;0&quot; border=&quot;0&quot;&gt;&lt;tbody&gt;&lt;tr style=&quot;height:18.75pt&quot; height=&quot;25&quot;&gt;&lt;br/&gt;  &lt;td style=&quot;height:18.75pt;width:60pt&quot; width=&quot;80&quot; class=&quot;xl65&quot; height=&quot;25&quot;&gt;14:49:02.637&amp;nbsp; &amp;nbsp;&lt;/td&gt;&lt;/tr&gt;&lt;/tbody&gt;&lt;/table&gt;" style="text;html=1;strokeColor=none;fillColor=none;align=center;verticalAlign=middle;whiteSpace=wrap;rounded=0;" vertex="1" parent="1">
          <mxGeometry x="50" y="550" width="130" height="40" as="geometry" />
        </mxCell>
        <mxCell id="2ykv83_YmhZ20coBo-Xl-19" value="" style="endArrow=none;dashed=1;html=1;rounded=0;" edge="1" parent="1">
          <mxGeometry width="50" height="50" relative="1" as="geometry">
            <mxPoint x="180" y="610" as="sourcePoint" />
            <mxPoint x="680" y="610" as="targetPoint" />
          </mxGeometry>
        </mxCell>
        <mxCell id="2ykv83_YmhZ20coBo-Xl-20" value="&lt;table style=&quot;border-collapse:&lt;br/&gt; collapse;width:60pt&quot; width=&quot;80&quot; cellspacing=&quot;0&quot; cellpadding=&quot;0&quot; border=&quot;0&quot;&gt;&lt;tbody&gt;&lt;tr style=&quot;height:18.75pt&quot; height=&quot;25&quot;&gt;&lt;br/&gt;  &lt;td style=&quot;height:18.75pt;width:60pt&quot; width=&quot;80&quot; class=&quot;xl65&quot; height=&quot;25&quot;&gt;14:49:04.007&amp;nbsp; &amp;nbsp;&lt;/td&gt;&lt;/tr&gt;&lt;/tbody&gt;&lt;/table&gt;" style="text;html=1;strokeColor=none;fillColor=none;align=center;verticalAlign=middle;whiteSpace=wrap;rounded=0;" vertex="1" parent="1">
          <mxGeometry x="50" y="590" width="130" height="40" as="geometry" />
        </mxCell>
        <mxCell id="2ykv83_YmhZ20coBo-Xl-21" value="" style="endArrow=none;dashed=1;html=1;rounded=0;" edge="1" parent="1" source="2ykv83_YmhZ20coBo-Xl-72">
          <mxGeometry width="50" height="50" relative="1" as="geometry">
            <mxPoint x="180" y="650" as="sourcePoint" />
            <mxPoint x="680" y="650" as="targetPoint" />
          </mxGeometry>
        </mxCell>
        <mxCell id="2ykv83_YmhZ20coBo-Xl-22" value="&lt;table style=&quot;border-collapse:&lt;br/&gt; collapse;width:60pt&quot; width=&quot;80&quot; cellspacing=&quot;0&quot; cellpadding=&quot;0&quot; border=&quot;0&quot;&gt;&lt;tbody&gt;&lt;tr style=&quot;height:18.75pt&quot; height=&quot;25&quot;&gt;&lt;br/&gt;  &lt;td style=&quot;height:18.75pt;width:60pt&quot; width=&quot;80&quot; class=&quot;xl65&quot; height=&quot;25&quot;&gt;14:49:05.037&amp;nbsp; &amp;nbsp;&lt;/td&gt;&lt;/tr&gt;&lt;/tbody&gt;&lt;/table&gt;" style="text;html=1;strokeColor=none;fillColor=none;align=center;verticalAlign=middle;whiteSpace=wrap;rounded=0;" vertex="1" parent="1">
          <mxGeometry x="50" y="630" width="130" height="40" as="geometry" />
        </mxCell>
        <mxCell id="2ykv83_YmhZ20coBo-Xl-23" value="" style="endArrow=none;dashed=1;html=1;rounded=0;" edge="1" parent="1" source="2ykv83_YmhZ20coBo-Xl-80">
          <mxGeometry width="50" height="50" relative="1" as="geometry">
            <mxPoint x="180" y="690" as="sourcePoint" />
            <mxPoint x="680" y="690" as="targetPoint" />
          </mxGeometry>
        </mxCell>
        <mxCell id="2ykv83_YmhZ20coBo-Xl-24" value="&lt;table style=&quot;border-collapse:&lt;br/&gt; collapse;width:60pt&quot; width=&quot;80&quot; cellspacing=&quot;0&quot; cellpadding=&quot;0&quot; border=&quot;0&quot;&gt;&lt;tbody&gt;&lt;tr style=&quot;height:18.75pt&quot; height=&quot;25&quot;&gt;&lt;br/&gt;  &lt;td style=&quot;height:18.75pt;width:60pt&quot; width=&quot;80&quot; class=&quot;xl65&quot; height=&quot;25&quot;&gt;14:49:05.650&amp;nbsp; &amp;nbsp;&lt;/td&gt;&lt;/tr&gt;&lt;/tbody&gt;&lt;/table&gt;" style="text;html=1;strokeColor=none;fillColor=none;align=center;verticalAlign=middle;whiteSpace=wrap;rounded=0;" vertex="1" parent="1">
          <mxGeometry x="50" y="670" width="130" height="40" as="geometry" />
        </mxCell>
        <mxCell id="2ykv83_YmhZ20coBo-Xl-26" value="" style="endArrow=none;dashed=1;html=1;rounded=0;" edge="1" parent="1">
          <mxGeometry width="50" height="50" relative="1" as="geometry">
            <mxPoint x="180" y="730" as="sourcePoint" />
            <mxPoint x="680" y="730" as="targetPoint" />
          </mxGeometry>
        </mxCell>
        <mxCell id="2ykv83_YmhZ20coBo-Xl-27" value="&lt;table style=&quot;border-collapse:&lt;br/&gt; collapse;width:60pt&quot; width=&quot;80&quot; cellspacing=&quot;0&quot; cellpadding=&quot;0&quot; border=&quot;0&quot;&gt;&lt;tbody&gt;&lt;tr style=&quot;height:18.75pt&quot; height=&quot;25&quot;&gt;&lt;br/&gt;  &lt;td style=&quot;height:18.75pt;width:60pt&quot; width=&quot;80&quot; class=&quot;xl65&quot; height=&quot;25&quot;&gt;14:49:05.652&amp;nbsp; &amp;nbsp;&lt;/td&gt;&lt;/tr&gt;&lt;/tbody&gt;&lt;/table&gt;" style="text;html=1;strokeColor=none;fillColor=none;align=center;verticalAlign=middle;whiteSpace=wrap;rounded=0;" vertex="1" parent="1">
          <mxGeometry x="50" y="710" width="130" height="40" as="geometry" />
        </mxCell>
        <mxCell id="2ykv83_YmhZ20coBo-Xl-28" value="" style="endArrow=none;dashed=1;html=1;rounded=0;" edge="1" parent="1" source="2ykv83_YmhZ20coBo-Xl-75">
          <mxGeometry width="50" height="50" relative="1" as="geometry">
            <mxPoint x="180" y="770" as="sourcePoint" />
            <mxPoint x="680" y="770" as="targetPoint" />
          </mxGeometry>
        </mxCell>
        <mxCell id="2ykv83_YmhZ20coBo-Xl-29" value="&lt;table style=&quot;border-collapse:&lt;br/&gt; collapse;width:60pt&quot; width=&quot;80&quot; cellspacing=&quot;0&quot; cellpadding=&quot;0&quot; border=&quot;0&quot;&gt;&lt;tbody&gt;&lt;tr style=&quot;height:18.75pt&quot; height=&quot;25&quot;&gt;&lt;br/&gt;  &lt;td style=&quot;height:18.75pt;width:60pt&quot; width=&quot;80&quot; class=&quot;xl65&quot; height=&quot;25&quot;&gt;14:49:06.141&amp;nbsp; &amp;nbsp;&lt;/td&gt;&lt;/tr&gt;&lt;/tbody&gt;&lt;/table&gt;" style="text;html=1;strokeColor=none;fillColor=none;align=center;verticalAlign=middle;whiteSpace=wrap;rounded=0;" vertex="1" parent="1">
          <mxGeometry x="50" y="750" width="130" height="40" as="geometry" />
        </mxCell>
        <mxCell id="2ykv83_YmhZ20coBo-Xl-30" value="" style="endArrow=none;dashed=1;html=1;rounded=0;" edge="1" parent="1">
          <mxGeometry width="50" height="50" relative="1" as="geometry">
            <mxPoint x="680" y="810" as="sourcePoint" />
            <mxPoint x="680" y="810" as="targetPoint" />
          </mxGeometry>
        </mxCell>
        <mxCell id="2ykv83_YmhZ20coBo-Xl-31" value="&lt;table style=&quot;border-collapse:&lt;br/&gt; collapse;width:60pt&quot; width=&quot;80&quot; cellspacing=&quot;0&quot; cellpadding=&quot;0&quot; border=&quot;0&quot;&gt;&lt;tbody&gt;&lt;tr style=&quot;height:18.75pt&quot; height=&quot;25&quot;&gt;&lt;br/&gt;  &lt;td style=&quot;height:18.75pt;width:60pt&quot; width=&quot;80&quot; class=&quot;xl65&quot; height=&quot;25&quot;&gt;14:49:07.247&amp;nbsp; &amp;nbsp;&lt;/td&gt;&lt;/tr&gt;&lt;/tbody&gt;&lt;/table&gt;" style="text;html=1;strokeColor=none;fillColor=none;align=center;verticalAlign=middle;whiteSpace=wrap;rounded=0;" vertex="1" parent="1">
          <mxGeometry x="50" y="790" width="130" height="40" as="geometry" />
        </mxCell>
        <mxCell id="2ykv83_YmhZ20coBo-Xl-32" value="" style="endArrow=none;dashed=1;html=1;rounded=0;" edge="1" parent="1">
          <mxGeometry width="50" height="50" relative="1" as="geometry">
            <mxPoint x="180" y="850" as="sourcePoint" />
            <mxPoint x="680" y="850" as="targetPoint" />
          </mxGeometry>
        </mxCell>
        <mxCell id="2ykv83_YmhZ20coBo-Xl-33" value="&lt;table style=&quot;border-collapse:&lt;br/&gt; collapse;width:60pt&quot; width=&quot;80&quot; cellspacing=&quot;0&quot; cellpadding=&quot;0&quot; border=&quot;0&quot;&gt;&lt;tbody&gt;&lt;tr style=&quot;height:18.75pt&quot; height=&quot;25&quot;&gt;&lt;br/&gt;  &lt;td style=&quot;height:18.75pt;width:60pt&quot; width=&quot;80&quot; class=&quot;xl65&quot; height=&quot;25&quot;&gt;14:49:07.846&amp;nbsp; &amp;nbsp;&lt;/td&gt;&lt;/tr&gt;&lt;/tbody&gt;&lt;/table&gt;" style="text;html=1;strokeColor=none;fillColor=none;align=center;verticalAlign=middle;whiteSpace=wrap;rounded=0;" vertex="1" parent="1">
          <mxGeometry x="50" y="830" width="130" height="40" as="geometry" />
        </mxCell>
        <mxCell id="2ykv83_YmhZ20coBo-Xl-34" value="" style="endArrow=none;dashed=1;html=1;rounded=0;" edge="1" parent="1">
          <mxGeometry width="50" height="50" relative="1" as="geometry">
            <mxPoint x="180" y="890" as="sourcePoint" />
            <mxPoint x="680" y="890" as="targetPoint" />
          </mxGeometry>
        </mxCell>
        <mxCell id="2ykv83_YmhZ20coBo-Xl-35" value="&lt;table style=&quot;border-collapse:&lt;br/&gt; collapse;width:60pt&quot; width=&quot;80&quot; cellspacing=&quot;0&quot; cellpadding=&quot;0&quot; border=&quot;0&quot;&gt;&lt;tbody&gt;&lt;tr style=&quot;height:18.75pt&quot; height=&quot;25&quot;&gt;&lt;br/&gt;  &lt;td style=&quot;height:18.75pt;width:60pt&quot; width=&quot;80&quot; class=&quot;xl65&quot; height=&quot;25&quot;&gt;14:49:09.659&amp;nbsp; &amp;nbsp;&lt;/td&gt;&lt;/tr&gt;&lt;/tbody&gt;&lt;/table&gt;" style="text;html=1;strokeColor=none;fillColor=none;align=center;verticalAlign=middle;whiteSpace=wrap;rounded=0;" vertex="1" parent="1">
          <mxGeometry x="50" y="870" width="130" height="40" as="geometry" />
        </mxCell>
        <mxCell id="2ykv83_YmhZ20coBo-Xl-36" value="" style="endArrow=none;dashed=1;html=1;rounded=0;" edge="1" parent="1">
          <mxGeometry width="50" height="50" relative="1" as="geometry">
            <mxPoint x="180" y="930" as="sourcePoint" />
            <mxPoint x="680" y="930" as="targetPoint" />
          </mxGeometry>
        </mxCell>
        <mxCell id="2ykv83_YmhZ20coBo-Xl-37" value="&lt;table style=&quot;border-collapse:&lt;br/&gt; collapse;width:60pt&quot; width=&quot;80&quot; cellspacing=&quot;0&quot; cellpadding=&quot;0&quot; border=&quot;0&quot;&gt;&lt;tbody&gt;&lt;tr style=&quot;height:18.75pt&quot; height=&quot;25&quot;&gt;&lt;br/&gt;  &lt;td style=&quot;height:18.75pt;width:60pt&quot; width=&quot;80&quot; class=&quot;xl65&quot; height=&quot;25&quot;&gt;14:49:10.779&amp;nbsp; &amp;nbsp;&lt;/td&gt;&lt;/tr&gt;&lt;/tbody&gt;&lt;/table&gt;" style="text;html=1;strokeColor=none;fillColor=none;align=center;verticalAlign=middle;whiteSpace=wrap;rounded=0;" vertex="1" parent="1">
          <mxGeometry x="50" y="910" width="130" height="40" as="geometry" />
        </mxCell>
        <mxCell id="2ykv83_YmhZ20coBo-Xl-38" value="" style="endArrow=none;dashed=1;html=1;rounded=0;" edge="1" parent="1">
          <mxGeometry width="50" height="50" relative="1" as="geometry">
            <mxPoint x="180" y="970" as="sourcePoint" />
            <mxPoint x="680" y="970" as="targetPoint" />
          </mxGeometry>
        </mxCell>
        <mxCell id="2ykv83_YmhZ20coBo-Xl-39" value="&lt;table style=&quot;border-collapse:&lt;br/&gt; collapse;width:60pt&quot; width=&quot;80&quot; cellspacing=&quot;0&quot; cellpadding=&quot;0&quot; border=&quot;0&quot;&gt;&lt;tbody&gt;&lt;tr style=&quot;height:18.75pt&quot; height=&quot;25&quot;&gt;&lt;br/&gt;  &lt;td style=&quot;height:18.75pt;width:60pt&quot; width=&quot;80&quot; class=&quot;xl65&quot; height=&quot;25&quot;&gt;14:49:11.577&amp;nbsp; &amp;nbsp;&lt;/td&gt;&lt;/tr&gt;&lt;/tbody&gt;&lt;/table&gt;" style="text;html=1;strokeColor=none;fillColor=none;align=center;verticalAlign=middle;whiteSpace=wrap;rounded=0;" vertex="1" parent="1">
          <mxGeometry x="50" y="950" width="130" height="40" as="geometry" />
        </mxCell>
        <mxCell id="2ykv83_YmhZ20coBo-Xl-40" value="" style="endArrow=none;dashed=1;html=1;rounded=0;" edge="1" parent="1">
          <mxGeometry width="50" height="50" relative="1" as="geometry">
            <mxPoint x="180" y="1010" as="sourcePoint" />
            <mxPoint x="680" y="1010" as="targetPoint" />
          </mxGeometry>
        </mxCell>
        <mxCell id="2ykv83_YmhZ20coBo-Xl-41" value="&lt;table style=&quot;border-collapse:&lt;br/&gt; collapse;width:60pt&quot; width=&quot;80&quot; cellspacing=&quot;0&quot; cellpadding=&quot;0&quot; border=&quot;0&quot;&gt;&lt;tbody&gt;&lt;tr style=&quot;height:18.75pt&quot; height=&quot;25&quot;&gt;&lt;br/&gt;  &lt;td style=&quot;height:18.75pt;width:60pt&quot; width=&quot;80&quot; class=&quot;xl65&quot; height=&quot;25&quot;&gt;14:49:11.578&amp;nbsp; &amp;nbsp;&lt;/td&gt;&lt;/tr&gt;&lt;/tbody&gt;&lt;/table&gt;" style="text;html=1;strokeColor=none;fillColor=none;align=center;verticalAlign=middle;whiteSpace=wrap;rounded=0;" vertex="1" parent="1">
          <mxGeometry x="50" y="990" width="130" height="40" as="geometry" />
        </mxCell>
        <mxCell id="2ykv83_YmhZ20coBo-Xl-42" value="" style="endArrow=none;dashed=1;html=1;rounded=0;" edge="1" parent="1">
          <mxGeometry width="50" height="50" relative="1" as="geometry">
            <mxPoint x="300" y="1050" as="sourcePoint" />
            <mxPoint x="680" y="1050" as="targetPoint" />
          </mxGeometry>
        </mxCell>
        <mxCell id="2ykv83_YmhZ20coBo-Xl-43" value="&lt;table style=&quot;border-collapse:&lt;br/&gt; collapse;width:60pt&quot; width=&quot;80&quot; cellspacing=&quot;0&quot; cellpadding=&quot;0&quot; border=&quot;0&quot;&gt;&lt;tbody&gt;&lt;tr style=&quot;height:18.75pt&quot; height=&quot;25&quot;&gt;&lt;br/&gt;  &lt;td style=&quot;height:18.75pt;width:60pt&quot; width=&quot;80&quot; class=&quot;xl65&quot; height=&quot;25&quot;&gt;14:49:13.521&amp;nbsp; &amp;nbsp;&lt;/td&gt;&lt;/tr&gt;&lt;/tbody&gt;&lt;/table&gt;" style="text;html=1;strokeColor=none;fillColor=none;align=center;verticalAlign=middle;whiteSpace=wrap;rounded=0;" vertex="1" parent="1">
          <mxGeometry x="50" y="1030" width="130" height="40" as="geometry" />
        </mxCell>
        <mxCell id="2ykv83_YmhZ20coBo-Xl-44" value="" style="endArrow=none;dashed=1;html=1;rounded=0;" edge="1" parent="1">
          <mxGeometry width="50" height="50" relative="1" as="geometry">
            <mxPoint x="180" y="1090" as="sourcePoint" />
            <mxPoint x="680" y="1090" as="targetPoint" />
          </mxGeometry>
        </mxCell>
        <mxCell id="2ykv83_YmhZ20coBo-Xl-45" value="&lt;table style=&quot;border-collapse:&lt;br/&gt; collapse;width:60pt&quot; width=&quot;80&quot; cellspacing=&quot;0&quot; cellpadding=&quot;0&quot; border=&quot;0&quot;&gt;&lt;tbody&gt;&lt;tr style=&quot;height:18.75pt&quot; height=&quot;25&quot;&gt;&lt;br/&gt;  &lt;td style=&quot;height:18.75pt;width:60pt&quot; width=&quot;80&quot; class=&quot;xl65&quot; height=&quot;25&quot;&gt;14:49:13.657&amp;nbsp; &amp;nbsp;&lt;/td&gt;&lt;/tr&gt;&lt;/tbody&gt;&lt;/table&gt;" style="text;html=1;strokeColor=none;fillColor=none;align=center;verticalAlign=middle;whiteSpace=wrap;rounded=0;" vertex="1" parent="1">
          <mxGeometry x="50" y="1070" width="130" height="40" as="geometry" />
        </mxCell>
        <mxCell id="2ykv83_YmhZ20coBo-Xl-58" value="" style="rounded=0;whiteSpace=wrap;html=1;" vertex="1" parent="1">
          <mxGeometry x="200" y="240" width="120" height="60" as="geometry" />
        </mxCell>
        <mxCell id="2ykv83_YmhZ20coBo-Xl-59" value="" style="rounded=0;whiteSpace=wrap;html=1;" vertex="1" parent="1">
          <mxGeometry x="380" y="240" width="120" height="60" as="geometry" />
        </mxCell>
        <mxCell id="2ykv83_YmhZ20coBo-Xl-61" value="" style="rounded=0;whiteSpace=wrap;html=1;" vertex="1" parent="1">
          <mxGeometry x="560" y="240" width="120" height="60" as="geometry" />
        </mxCell>
        <mxCell id="2ykv83_YmhZ20coBo-Xl-63" value="Tornado" style="text;html=1;strokeColor=none;fillColor=none;align=center;verticalAlign=middle;whiteSpace=wrap;rounded=0;" vertex="1" parent="1">
          <mxGeometry x="230" y="200" width="60" height="30" as="geometry" />
        </mxCell>
        <mxCell id="2ykv83_YmhZ20coBo-Xl-64" value="Pegasus" style="text;html=1;align=center;verticalAlign=middle;resizable=0;points=[];autosize=1;strokeColor=none;fillColor=none;" vertex="1" parent="1">
          <mxGeometry x="405" y="200" width="70" height="30" as="geometry" />
        </mxCell>
        <mxCell id="2ykv83_YmhZ20coBo-Xl-65" value="Socrates&lt;br&gt;" style="text;html=1;align=center;verticalAlign=middle;resizable=0;points=[];autosize=1;strokeColor=none;fillColor=none;" vertex="1" parent="1">
          <mxGeometry x="585" y="200" width="70" height="30" as="geometry" />
        </mxCell>
        <mxCell id="2ykv83_YmhZ20coBo-Xl-69" value="" style="endArrow=none;dashed=1;html=1;rounded=0;" edge="1" parent="1" target="2ykv83_YmhZ20coBo-Xl-68">
          <mxGeometry width="50" height="50" relative="1" as="geometry">
            <mxPoint x="180" y="330" as="sourcePoint" />
            <mxPoint x="680" y="330" as="targetPoint" />
          </mxGeometry>
        </mxCell>
        <mxCell id="2ykv83_YmhZ20coBo-Xl-68" value="" style="rounded=0;whiteSpace=wrap;html=1;" vertex="1" parent="1">
          <mxGeometry x="200" y="320" width="120" height="20" as="geometry" />
        </mxCell>
        <mxCell id="2ykv83_YmhZ20coBo-Xl-71" value="" style="endArrow=none;dashed=1;html=1;rounded=0;" edge="1" parent="1" target="2ykv83_YmhZ20coBo-Xl-70">
          <mxGeometry width="50" height="50" relative="1" as="geometry">
            <mxPoint x="180" y="490" as="sourcePoint" />
            <mxPoint x="680" y="490" as="targetPoint" />
          </mxGeometry>
        </mxCell>
        <mxCell id="2ykv83_YmhZ20coBo-Xl-70" value="" style="rounded=0;whiteSpace=wrap;html=1;" vertex="1" parent="1">
          <mxGeometry x="200" y="480" width="120" height="20" as="geometry" />
        </mxCell>
        <mxCell id="2ykv83_YmhZ20coBo-Xl-74" value="" style="endArrow=none;dashed=1;html=1;rounded=0;" edge="1" parent="1" target="2ykv83_YmhZ20coBo-Xl-72">
          <mxGeometry width="50" height="50" relative="1" as="geometry">
            <mxPoint x="180" y="650" as="sourcePoint" />
            <mxPoint x="680" y="650" as="targetPoint" />
          </mxGeometry>
        </mxCell>
        <mxCell id="2ykv83_YmhZ20coBo-Xl-72" value="" style="rounded=0;whiteSpace=wrap;html=1;" vertex="1" parent="1">
          <mxGeometry x="200" y="640" width="120" height="20" as="geometry" />
        </mxCell>
        <mxCell id="2ykv83_YmhZ20coBo-Xl-76" value="" style="endArrow=none;dashed=1;html=1;rounded=0;" edge="1" parent="1" target="2ykv83_YmhZ20coBo-Xl-75">
          <mxGeometry width="50" height="50" relative="1" as="geometry">
            <mxPoint x="180" y="770" as="sourcePoint" />
            <mxPoint x="680" y="770" as="targetPoint" />
          </mxGeometry>
        </mxCell>
        <mxCell id="2ykv83_YmhZ20coBo-Xl-75" value="" style="rounded=0;whiteSpace=wrap;html=1;" vertex="1" parent="1">
          <mxGeometry x="200" y="760" width="120" height="20" as="geometry" />
        </mxCell>
        <mxCell id="2ykv83_YmhZ20coBo-Xl-78" value="" style="endArrow=none;dashed=1;html=1;rounded=0;" edge="1" parent="1" target="2ykv83_YmhZ20coBo-Xl-77">
          <mxGeometry width="50" height="50" relative="1" as="geometry">
            <mxPoint x="180" y="410" as="sourcePoint" />
            <mxPoint x="680" y="410" as="targetPoint" />
          </mxGeometry>
        </mxCell>
        <mxCell id="2ykv83_YmhZ20coBo-Xl-77" value="" style="rounded=0;whiteSpace=wrap;html=1;" vertex="1" parent="1">
          <mxGeometry x="380" y="400" width="120" height="20" as="geometry" />
        </mxCell>
        <mxCell id="2ykv83_YmhZ20coBo-Xl-79" value="" style="rounded=0;whiteSpace=wrap;html=1;" vertex="1" parent="1">
          <mxGeometry x="380" y="520" width="120" height="20" as="geometry" />
        </mxCell>
        <mxCell id="2ykv83_YmhZ20coBo-Xl-81" value="" style="endArrow=none;dashed=1;html=1;rounded=0;" edge="1" parent="1" target="2ykv83_YmhZ20coBo-Xl-80">
          <mxGeometry width="50" height="50" relative="1" as="geometry">
            <mxPoint x="180" y="690" as="sourcePoint" />
            <mxPoint x="680" y="690" as="targetPoint" />
          </mxGeometry>
        </mxCell>
        <mxCell id="2ykv83_YmhZ20coBo-Xl-80" value="" style="rounded=0;whiteSpace=wrap;html=1;" vertex="1" parent="1">
          <mxGeometry x="380" y="680" width="120" height="20" as="geometry" />
        </mxCell>
        <mxCell id="2ykv83_YmhZ20coBo-Xl-82" value="" style="rounded=0;whiteSpace=wrap;html=1;" vertex="1" parent="1">
          <mxGeometry x="380" y="840" width="120" height="20" as="geometry" />
        </mxCell>
        <mxCell id="2ykv83_YmhZ20coBo-Xl-83" value="" style="rounded=0;whiteSpace=wrap;html=1;" vertex="1" parent="1">
          <mxGeometry x="380" y="880" width="120" height="220" as="geometry" />
        </mxCell>
        <mxCell id="2ykv83_YmhZ20coBo-Xl-85" value="" style="endArrow=none;dashed=1;html=1;rounded=0;" edge="1" parent="1" target="2ykv83_YmhZ20coBo-Xl-84">
          <mxGeometry width="50" height="50" relative="1" as="geometry">
            <mxPoint x="180" y="450" as="sourcePoint" />
            <mxPoint x="680" y="450" as="targetPoint" />
          </mxGeometry>
        </mxCell>
        <mxCell id="2ykv83_YmhZ20coBo-Xl-84" value="" style="rounded=0;whiteSpace=wrap;html=1;" vertex="1" parent="1">
          <mxGeometry x="560" y="440" width="120" height="20" as="geometry" />
        </mxCell>
        <mxCell id="2ykv83_YmhZ20coBo-Xl-86" value="" style="rounded=0;whiteSpace=wrap;html=1;" vertex="1" parent="1">
          <mxGeometry x="560" y="560" width="120" height="20" as="geometry" />
        </mxCell>
        <mxCell id="2ykv83_YmhZ20coBo-Xl-87" value="" style="rounded=0;whiteSpace=wrap;html=1;" vertex="1" parent="1">
          <mxGeometry x="560" y="600" width="120" height="20" as="geometry" />
        </mxCell>
        <mxCell id="2ykv83_YmhZ20coBo-Xl-88" value="" style="rounded=0;whiteSpace=wrap;html=1;" vertex="1" parent="1">
          <mxGeometry x="560" y="720" width="120" height="20" as="geometry" />
        </mxCell>
        <mxCell id="2ykv83_YmhZ20coBo-Xl-90" value="" style="endArrow=none;dashed=1;html=1;rounded=0;" edge="1" parent="1">
          <mxGeometry width="50" height="50" relative="1" as="geometry">
            <mxPoint x="180" y="810" as="sourcePoint" />
            <mxPoint x="560" y="810" as="targetPoint" />
          </mxGeometry>
        </mxCell>
        <mxCell id="2ykv83_YmhZ20coBo-Xl-91" value="" style="rounded=0;whiteSpace=wrap;html=1;" vertex="1" parent="1">
          <mxGeometry x="560" y="800" width="120" height="140" as="geometry" />
        </mxCell>
        <mxCell id="2ykv83_YmhZ20coBo-Xl-93" value="" style="endArrow=none;dashed=1;html=1;rounded=0;" edge="1" parent="1">
          <mxGeometry width="50" height="50" relative="1" as="geometry">
            <mxPoint x="180" y="1050" as="sourcePoint" />
            <mxPoint x="180" y="1050" as="targetPoint" />
          </mxGeometry>
        </mxCell>
        <mxCell id="2ykv83_YmhZ20coBo-Xl-94" value="" style="rounded=0;whiteSpace=wrap;html=1;" vertex="1" parent="1">
          <mxGeometry x="200" y="1000" width="120" height="60" as="geometry" />
        </mxCell>
      </root>
    </mxGraphModel>
  </diagram>
</mxfile>
